<svg width="150" height="60" viewBox="0 0 150 60" fill="none" xmlns="http://www.w3.org/2000/svg">
<path id="Vector" d="M0 48.75C0 54.9609 5.03906 60 11.25 60H138.75C144.961 60 150 54.9609 150 48.75V11.25C150 5.03906 144.961 0 138.75 0H123.75V18.75C123.75 20.8125 122.063 22.5 120 22.5C117.937 22.5 116.25 20.8125 116.25 18.75V0H101.25V18.75C101.25 20.8125 99.5625 22.5 97.5 22.5C95.4375 22.5 93.75 20.8125 93.75 18.75V0H78.75V18.75C78.75 20.8125 77.0625 22.5 75 22.5C72.9375 22.5 71.25 20.8125 71.25 18.75V0H56.25V18.75C56.25 20.8125 54.5625 22.5 52.5 22.5C50.4375 22.5 48.75 20.8125 48.75 18.75V0H33.75V18.75C33.75 20.8125 32.0625 22.5 30 22.5C27.9375 22.5 26.25 20.8125 26.25 18.75V0H11.25C5.03906 0 0 5.03906 0 11.25V48.75Z" fill="black"/>
</svg>
