<svg width="150" height="91" viewBox="0 0 150 91" fill="none" xmlns="http://www.w3.org/2000/svg">
<path id="Vector" d="M140.938 20.0007C139.399 19.9507 137.872 20.281 136.492 20.9624C135.112 21.6438 133.921 22.6552 133.025 23.9069C132.949 24.0159 132.84 24.0978 132.714 24.1407C132.589 24.1836 132.453 24.1853 132.326 24.1456C132.199 24.1059 132.088 24.0268 132.009 23.9198C131.93 23.8129 131.888 23.6835 131.888 23.5507V12.0975C131.888 5.61317 126.781 0.156915 120.3 0.00379035C118.716 -0.0362455 117.14 0.241224 115.664 0.819852C114.189 1.39848 112.844 2.26656 111.71 3.37293C110.575 4.47931 109.673 5.8016 109.058 7.26189C108.442 8.72217 108.125 10.2909 108.125 11.8757V37.5007C108.125 37.6664 108.059 37.8254 107.942 37.9426C107.825 38.0598 107.666 38.1257 107.5 38.1257H42.5C42.3342 38.1257 42.1753 38.0598 42.0581 37.9426C41.9408 37.8254 41.875 37.6664 41.875 37.5007V12.0975C41.875 5.61317 36.7687 0.156915 30.2875 0.00379035C28.7043 -0.0345512 27.1294 0.244173 25.6555 0.823562C24.1816 1.40295 22.8385 2.2713 21.7052 3.3775C20.572 4.48371 19.6714 5.80542 19.0565 7.26486C18.4417 8.72431 18.125 10.292 18.125 11.8757V23.5569C18.1247 23.6898 18.082 23.8191 18.0032 23.9261C17.9244 24.0331 17.8136 24.1122 17.6868 24.1519C17.56 24.1916 17.4238 24.1899 17.2981 24.1469C17.1723 24.104 17.0636 24.0221 16.9875 23.9132C16.0912 22.6585 14.8987 21.6448 13.5161 20.9622C12.1335 20.2796 10.6036 19.9493 9.0625 20.0007C3.96875 20.16 0 24.4725 0 29.5694V60.4194C0 65.5163 3.98125 69.8288 9.0625 69.9882C10.6009 70.0382 12.128 69.7078 13.5082 69.0264C14.8884 68.345 16.0792 67.3336 16.975 66.0819C17.0492 65.9667 17.1592 65.879 17.2881 65.8325C17.417 65.7859 17.5577 65.783 17.6884 65.8242C17.8191 65.8654 17.9326 65.9484 18.0115 66.0605C18.0904 66.1726 18.1303 66.3075 18.125 66.4444V77.9038C18.125 84.3757 23.2313 89.8444 29.7125 90.0007C31.296 90.039 32.8711 89.7602 34.3452 89.1806C35.8193 88.601 37.1625 87.7324 38.2959 86.6259C39.4292 85.5193 40.3297 84.1972 40.9444 82.7374C41.559 81.2776 41.8755 79.7096 41.875 78.1257V52.5007C41.875 52.3349 41.9408 52.1759 42.0581 52.0587C42.1753 51.9415 42.3342 51.8757 42.5 51.8757H107.5C107.666 51.8757 107.825 51.9415 107.942 52.0587C108.059 52.1759 108.125 52.3349 108.125 52.5007V77.9038C108.125 84.3882 113.231 89.8444 119.712 89.9975C121.296 90.0359 122.871 89.7572 124.344 89.1778C125.818 88.5984 127.161 87.73 128.295 86.6238C129.428 85.5176 130.329 84.1959 130.943 82.7365C131.558 81.277 131.875 79.7093 131.875 78.1257V66.4444C131.875 66.3115 131.918 66.1822 131.997 66.0752C132.076 65.9683 132.186 65.8892 132.313 65.8495C132.44 65.8097 132.576 65.8115 132.702 65.8544C132.828 65.8973 132.936 65.9792 133.013 66.0882C133.909 67.3429 135.101 68.3566 136.484 69.0392C137.867 69.7217 139.396 70.052 140.938 70.0007C146.031 69.8413 150 65.5288 150 60.4319V29.5757C150 24.4788 146.019 20.1663 140.938 20.0007Z" fill="black"/>
</svg>
